<svg width="607" height="222" viewBox="0 0 607 222" fill="none" xmlns="http://www.w3.org/2000/svg">
<g filter="url(#filter0_d_45_425)">
<mask id="path-1-outside-1_45_425" maskUnits="userSpaceOnUse" x="155.577" y="48" width="198" height="124" fill="black">
<rect fill="white" x="155.577" y="48" width="198" height="124"/>
<path d="M195.432 76.402C195.432 74.1751 195.346 72.5906 195.175 71.6484C195.004 70.7063 194.49 70.0211 193.633 69.5928C192.863 69.1646 191.407 68.8648 189.265 68.6935C187.981 68.6078 185.197 68.565 180.914 68.565C176.803 68.565 172.992 68.7363 169.48 69.0789L162.671 69.4643V52.7626C170.722 51.2209 179.416 50.4501 188.751 50.4501C195.946 50.4501 201.556 50.964 205.582 51.9918C209.693 53.0196 212.776 54.6469 214.832 56.8738C216.63 58.9294 217.787 61.5417 218.301 64.7108C218.9 67.8798 219.2 72.2908 219.2 77.9437V117H195.432V76.402ZM176.418 117.899C170.508 117.899 166.14 116.272 163.313 113.017C160.487 109.677 159.074 104.666 159.074 97.9857C159.074 93.8745 159.374 90.577 159.973 88.0932C160.573 85.5237 161.6 83.5109 163.056 82.0549C164.513 80.5132 166.525 79.4425 169.095 78.843C171.664 78.1578 175.047 77.8152 179.244 77.8152L190.036 78.0721V89.5064H188.751C186.781 89.5064 185.497 89.5492 184.897 89.6349C183.184 89.7205 182.285 90.5342 182.199 92.0759C182.114 92.5898 182.071 93.6604 182.071 95.2878C182.071 96.5725 182.114 97.5575 182.199 98.2427C182.371 98.9279 182.627 99.4846 182.97 99.9129C183.398 100.512 184.041 100.855 184.897 100.941C186.096 101.112 187.381 101.198 188.751 101.198H190.036V114.302C188.152 115.758 186.139 116.7 183.998 117.128C181.942 117.642 179.416 117.899 176.418 117.899ZM276.065 69.0789C273.924 68.7363 270.84 68.565 266.815 68.565C264.16 68.565 262.275 68.7363 261.162 69.0789V50.4501C267.243 50.5357 273.538 51.3066 280.048 52.7626V69.4643L276.065 69.0789ZM260.263 118.028C253.582 118.028 248.272 117.214 244.332 115.587C240.392 113.959 237.48 111.561 235.596 108.392C233.883 105.651 232.769 102.44 232.255 98.7566C231.827 95.0736 231.613 90.2772 231.613 84.3674C231.613 78.9715 231.827 74.4749 232.255 70.8776C232.683 67.2803 233.583 64.1112 234.953 61.3704C236.581 58.2014 239.022 55.7604 242.276 54.0474C245.617 52.2487 250.113 51.1353 255.766 50.707V84.2389C255.766 88.0075 255.852 90.834 256.023 92.7183C256.28 94.6026 256.751 96.0586 257.436 97.0864C258.207 98.1142 259.278 98.8422 260.648 99.2705C262.104 99.6987 264.16 99.9129 266.815 99.9129C271.354 99.9129 274.481 99.7844 276.194 99.5274L280.562 99.0135V115.715C274.224 117.257 267.457 118.028 260.263 118.028ZM320.369 77.8152H329.362C329.362 73.0188 328.891 69.9354 327.949 68.565C327.435 67.7942 326.75 67.3231 325.893 67.1518C325.037 66.8948 323.795 66.7664 322.167 66.7664H320.369V50.4501H322.167C329.533 50.4501 335.186 51.0496 339.126 52.2487C343.152 53.4478 346.107 55.4178 347.991 58.1586C349.704 60.5568 350.732 63.6401 351.074 67.4087C351.503 71.1773 351.717 76.8302 351.717 84.3674V89.5064H320.369V77.8152ZM324.737 118.028C316.857 118.028 310.648 117.385 306.108 116.101C301.654 114.73 298.314 112.589 296.087 109.677C294.117 107.107 292.832 103.938 292.233 100.17C291.633 96.3156 291.334 91.0481 291.334 84.3674C291.334 78.2006 291.548 73.3186 291.976 69.7213C292.404 66.0383 293.303 62.9121 294.674 60.3426C296.216 57.5162 298.571 55.3321 301.74 53.7904C304.995 52.1631 309.406 51.1353 314.973 50.707V89.5064C314.973 92.4185 315.101 94.5169 315.358 95.8017C315.615 97.0008 316.215 97.9001 317.157 98.4996C318.185 99.1848 319.769 99.5703 321.911 99.6559C324.651 99.8272 327.563 99.9129 330.647 99.9129C336.128 99.9129 340.111 99.7844 342.595 99.5274L349.147 99.0135V115.587C345.721 116.615 341.01 117.3 335.015 117.642C332.103 117.899 328.677 118.028 324.737 118.028ZM157.525 130.577H167.092V169H157.525V130.577ZM172.47 156.537C172.47 154.71 172.453 153.503 172.418 152.917C172.349 151.952 172.263 151.314 172.16 151.004C172.022 150.659 171.78 150.452 171.436 150.383C171.091 150.28 170.539 150.228 169.781 150.228H169.264V143.919C170.643 142.816 172.401 142.264 174.538 142.264C177.641 142.264 179.727 143.212 180.796 145.109C181.278 145.936 181.606 146.953 181.778 148.16C181.951 149.332 182.037 150.78 182.037 152.504V169H172.47V156.537ZM201.424 152.659C201.424 151.762 201.389 151.125 201.32 150.745C201.251 150.366 201.044 150.09 200.7 149.918C200.389 149.745 199.803 149.625 198.941 149.556C198.424 149.521 197.304 149.504 195.58 149.504C193.925 149.504 192.391 149.573 190.978 149.711L188.237 149.866V143.143C191.477 142.523 194.977 142.213 198.734 142.213C201.63 142.213 203.889 142.419 205.509 142.833C207.164 143.247 208.405 143.902 209.232 144.798C209.956 145.626 210.422 146.677 210.629 147.953C210.87 149.228 210.99 151.004 210.99 153.279V169H201.424V152.659ZM193.77 169.362C191.391 169.362 189.633 168.707 188.495 167.397C187.358 166.052 186.789 164.036 186.789 161.346C186.789 159.692 186.909 158.364 187.151 157.365C187.392 156.33 187.806 155.52 188.392 154.934C188.978 154.313 189.788 153.883 190.822 153.641C191.857 153.365 193.218 153.228 194.908 153.228L199.252 153.331V157.933H198.734C197.942 157.933 197.424 157.951 197.183 157.985C196.494 158.02 196.132 158.347 196.097 158.968C196.063 159.175 196.045 159.605 196.045 160.26C196.045 160.778 196.063 161.174 196.097 161.45C196.166 161.726 196.269 161.95 196.407 162.122C196.58 162.363 196.838 162.501 197.183 162.536C197.666 162.605 198.183 162.639 198.734 162.639H199.252V167.914C198.493 168.5 197.683 168.879 196.821 169.052C195.994 169.259 194.977 169.362 193.77 169.362ZM233.88 149.711C233.018 149.573 231.777 149.504 230.156 149.504C229.088 149.504 228.329 149.573 227.881 149.711V142.213C230.329 142.247 232.863 142.557 235.483 143.143V149.866L233.88 149.711ZM227.519 169.414C224.83 169.414 222.692 169.086 221.106 168.431C219.521 167.776 218.348 166.811 217.59 165.535C216.9 164.432 216.452 163.139 216.245 161.657C216.073 160.174 215.987 158.244 215.987 155.865C215.987 153.693 216.073 151.883 216.245 150.435C216.418 148.987 216.78 147.711 217.331 146.608C217.986 145.333 218.969 144.35 220.279 143.661C221.624 142.937 223.434 142.488 225.709 142.316V155.813C225.709 157.33 225.743 158.468 225.812 159.226C225.916 159.985 226.105 160.571 226.381 160.984C226.691 161.398 227.122 161.691 227.674 161.864C228.26 162.036 229.088 162.122 230.156 162.122C231.983 162.122 233.242 162.07 233.931 161.967L235.69 161.76V168.483C233.138 169.103 230.415 169.414 227.519 169.414ZM240.801 130.577H250.368V169H240.801V130.577ZM252.54 161.45V150.487L257.039 142.626H267.123L259.366 155.141L267.278 169H256.832L252.54 161.45ZM270.286 134.249C274.355 133.421 278.25 133.008 281.974 133.008C282.767 133.008 283.353 133.025 283.732 133.059V141.075C282.904 140.971 281.784 140.92 280.37 140.92C279.509 140.92 278.285 140.954 276.699 141.023L270.286 141.644V134.249ZM286.214 158.295C286.214 157.537 286.145 156.951 286.007 156.537C285.904 156.089 285.697 155.744 285.387 155.503C284.87 155.158 283.715 154.986 281.922 154.986H276.233V147.074H281.922C282.818 147.074 283.525 147.039 284.042 146.97C284.559 146.901 284.956 146.763 285.232 146.557C285.507 146.35 285.68 146.074 285.749 145.729C285.852 145.35 285.904 144.781 285.904 144.023V133.215C289.627 133.594 292.316 134.542 293.971 136.059C295.626 137.541 296.453 139.644 296.453 142.368C296.453 144.884 295.953 146.781 294.954 148.056C293.988 149.332 292.437 150.228 290.299 150.745V150.952C292.54 151.469 294.143 152.279 295.109 153.383C296.212 154.693 296.764 156.727 296.764 159.485C296.764 162.381 296.074 164.57 294.695 166.052C293.109 167.742 290.282 168.793 286.214 169.207V158.295ZM282.284 169.414C280.388 169.414 278.216 169.276 275.768 169C273.32 168.759 271.424 168.483 270.08 168.173V160.778C274.251 161.26 277.974 161.502 281.25 161.502C282.008 161.502 282.939 161.467 284.042 161.398V169.362C283.697 169.396 283.111 169.414 282.284 169.414ZM302.522 160.571H312.968V169H302.522V160.571ZM337.432 151.211C337.432 148.211 337.415 146.246 337.381 145.315C337.312 143.867 337.174 142.85 336.967 142.264C336.726 141.678 336.346 141.316 335.829 141.178C335.347 141.006 334.519 140.92 333.347 140.92C332.83 140.92 332.192 140.954 331.434 141.023V133.059C331.64 133.025 331.951 133.008 332.364 133.008H333.347C336.967 133.008 339.759 133.318 341.724 133.939C343.69 134.525 345.138 135.507 346.068 136.886C346.93 138.162 347.465 139.834 347.671 141.902C347.878 143.971 347.982 147.074 347.982 151.211C347.982 154.934 347.896 157.761 347.723 159.692C347.585 161.622 347.206 163.243 346.585 164.553C345.896 166.001 344.827 167.104 343.379 167.862C341.966 168.586 339.983 169.052 337.432 169.259V151.211ZM333.347 169.414C329.762 169.414 326.969 169.121 324.969 168.535C323.004 167.914 321.556 166.897 320.626 165.484C319.764 164.208 319.229 162.553 319.022 160.519C318.816 158.485 318.712 155.382 318.712 151.211C318.712 147.487 318.781 144.66 318.919 142.73C319.091 140.799 319.488 139.179 320.108 137.869C320.798 136.421 321.849 135.335 323.263 134.611C324.711 133.852 326.71 133.37 329.262 133.163V151.211C329.262 154.176 329.279 156.123 329.313 157.054C329.382 158.433 329.537 159.468 329.779 160.157C330.02 160.743 330.382 161.122 330.865 161.295C331.347 161.433 332.175 161.502 333.347 161.502H334.381C334.623 161.502 334.916 161.467 335.26 161.398V169.362C335.053 169.396 334.743 169.414 334.329 169.414H333.347Z"/>
</mask>
<path d="M195.432 76.402C195.432 74.1751 195.346 72.5906 195.175 71.6484C195.004 70.7063 194.49 70.0211 193.633 69.5928C192.863 69.1646 191.407 68.8648 189.265 68.6935C187.981 68.6078 185.197 68.565 180.914 68.565C176.803 68.565 172.992 68.7363 169.48 69.0789L162.671 69.4643V52.7626C170.722 51.2209 179.416 50.4501 188.751 50.4501C195.946 50.4501 201.556 50.964 205.582 51.9918C209.693 53.0196 212.776 54.6469 214.832 56.8738C216.63 58.9294 217.787 61.5417 218.301 64.7108C218.9 67.8798 219.2 72.2908 219.2 77.9437V117H195.432V76.402ZM176.418 117.899C170.508 117.899 166.14 116.272 163.313 113.017C160.487 109.677 159.074 104.666 159.074 97.9857C159.074 93.8745 159.374 90.577 159.973 88.0932C160.573 85.5237 161.6 83.5109 163.056 82.0549C164.513 80.5132 166.525 79.4425 169.095 78.843C171.664 78.1578 175.047 77.8152 179.244 77.8152L190.036 78.0721V89.5064H188.751C186.781 89.5064 185.497 89.5492 184.897 89.6349C183.184 89.7205 182.285 90.5342 182.199 92.0759C182.114 92.5898 182.071 93.6604 182.071 95.2878C182.071 96.5725 182.114 97.5575 182.199 98.2427C182.371 98.9279 182.627 99.4846 182.97 99.9129C183.398 100.512 184.041 100.855 184.897 100.941C186.096 101.112 187.381 101.198 188.751 101.198H190.036V114.302C188.152 115.758 186.139 116.7 183.998 117.128C181.942 117.642 179.416 117.899 176.418 117.899ZM276.065 69.0789C273.924 68.7363 270.84 68.565 266.815 68.565C264.16 68.565 262.275 68.7363 261.162 69.0789V50.4501C267.243 50.5357 273.538 51.3066 280.048 52.7626V69.4643L276.065 69.0789ZM260.263 118.028C253.582 118.028 248.272 117.214 244.332 115.587C240.392 113.959 237.48 111.561 235.596 108.392C233.883 105.651 232.769 102.44 232.255 98.7566C231.827 95.0736 231.613 90.2772 231.613 84.3674C231.613 78.9715 231.827 74.4749 232.255 70.8776C232.683 67.2803 233.583 64.1112 234.953 61.3704C236.581 58.2014 239.022 55.7604 242.276 54.0474C245.617 52.2487 250.113 51.1353 255.766 50.707V84.2389C255.766 88.0075 255.852 90.834 256.023 92.7183C256.28 94.6026 256.751 96.0586 257.436 97.0864C258.207 98.1142 259.278 98.8422 260.648 99.2705C262.104 99.6987 264.16 99.9129 266.815 99.9129C271.354 99.9129 274.481 99.7844 276.194 99.5274L280.562 99.0135V115.715C274.224 117.257 267.457 118.028 260.263 118.028ZM320.369 77.8152H329.362C329.362 73.0188 328.891 69.9354 327.949 68.565C327.435 67.7942 326.75 67.3231 325.893 67.1518C325.037 66.8948 323.795 66.7664 322.167 66.7664H320.369V50.4501H322.167C329.533 50.4501 335.186 51.0496 339.126 52.2487C343.152 53.4478 346.107 55.4178 347.991 58.1586C349.704 60.5568 350.732 63.6401 351.074 67.4087C351.503 71.1773 351.717 76.8302 351.717 84.3674V89.5064H320.369V77.8152ZM324.737 118.028C316.857 118.028 310.648 117.385 306.108 116.101C301.654 114.73 298.314 112.589 296.087 109.677C294.117 107.107 292.832 103.938 292.233 100.17C291.633 96.3156 291.334 91.0481 291.334 84.3674C291.334 78.2006 291.548 73.3186 291.976 69.7213C292.404 66.0383 293.303 62.9121 294.674 60.3426C296.216 57.5162 298.571 55.3321 301.74 53.7904C304.995 52.1631 309.406 51.1353 314.973 50.707V89.5064C314.973 92.4185 315.101 94.5169 315.358 95.8017C315.615 97.0008 316.215 97.9001 317.157 98.4996C318.185 99.1848 319.769 99.5703 321.911 99.6559C324.651 99.8272 327.563 99.9129 330.647 99.9129C336.128 99.9129 340.111 99.7844 342.595 99.5274L349.147 99.0135V115.587C345.721 116.615 341.01 117.3 335.015 117.642C332.103 117.899 328.677 118.028 324.737 118.028ZM157.525 130.577H167.092V169H157.525V130.577ZM172.47 156.537C172.47 154.71 172.453 153.503 172.418 152.917C172.349 151.952 172.263 151.314 172.16 151.004C172.022 150.659 171.78 150.452 171.436 150.383C171.091 150.28 170.539 150.228 169.781 150.228H169.264V143.919C170.643 142.816 172.401 142.264 174.538 142.264C177.641 142.264 179.727 143.212 180.796 145.109C181.278 145.936 181.606 146.953 181.778 148.16C181.951 149.332 182.037 150.78 182.037 152.504V169H172.47V156.537ZM201.424 152.659C201.424 151.762 201.389 151.125 201.32 150.745C201.251 150.366 201.044 150.09 200.7 149.918C200.389 149.745 199.803 149.625 198.941 149.556C198.424 149.521 197.304 149.504 195.58 149.504C193.925 149.504 192.391 149.573 190.978 149.711L188.237 149.866V143.143C191.477 142.523 194.977 142.213 198.734 142.213C201.63 142.213 203.889 142.419 205.509 142.833C207.164 143.247 208.405 143.902 209.232 144.798C209.956 145.626 210.422 146.677 210.629 147.953C210.87 149.228 210.99 151.004 210.99 153.279V169H201.424V152.659ZM193.77 169.362C191.391 169.362 189.633 168.707 188.495 167.397C187.358 166.052 186.789 164.036 186.789 161.346C186.789 159.692 186.909 158.364 187.151 157.365C187.392 156.33 187.806 155.52 188.392 154.934C188.978 154.313 189.788 153.883 190.822 153.641C191.857 153.365 193.218 153.228 194.908 153.228L199.252 153.331V157.933H198.734C197.942 157.933 197.424 157.951 197.183 157.985C196.494 158.02 196.132 158.347 196.097 158.968C196.063 159.175 196.045 159.605 196.045 160.26C196.045 160.778 196.063 161.174 196.097 161.45C196.166 161.726 196.269 161.95 196.407 162.122C196.58 162.363 196.838 162.501 197.183 162.536C197.666 162.605 198.183 162.639 198.734 162.639H199.252V167.914C198.493 168.5 197.683 168.879 196.821 169.052C195.994 169.259 194.977 169.362 193.77 169.362ZM233.88 149.711C233.018 149.573 231.777 149.504 230.156 149.504C229.088 149.504 228.329 149.573 227.881 149.711V142.213C230.329 142.247 232.863 142.557 235.483 143.143V149.866L233.88 149.711ZM227.519 169.414C224.83 169.414 222.692 169.086 221.106 168.431C219.521 167.776 218.348 166.811 217.59 165.535C216.9 164.432 216.452 163.139 216.245 161.657C216.073 160.174 215.987 158.244 215.987 155.865C215.987 153.693 216.073 151.883 216.245 150.435C216.418 148.987 216.78 147.711 217.331 146.608C217.986 145.333 218.969 144.35 220.279 143.661C221.624 142.937 223.434 142.488 225.709 142.316V155.813C225.709 157.33 225.743 158.468 225.812 159.226C225.916 159.985 226.105 160.571 226.381 160.984C226.691 161.398 227.122 161.691 227.674 161.864C228.26 162.036 229.088 162.122 230.156 162.122C231.983 162.122 233.242 162.07 233.931 161.967L235.69 161.76V168.483C233.138 169.103 230.415 169.414 227.519 169.414ZM240.801 130.577H250.368V169H240.801V130.577ZM252.54 161.45V150.487L257.039 142.626H267.123L259.366 155.141L267.278 169H256.832L252.54 161.45ZM270.286 134.249C274.355 133.421 278.25 133.008 281.974 133.008C282.767 133.008 283.353 133.025 283.732 133.059V141.075C282.904 140.971 281.784 140.92 280.37 140.92C279.509 140.92 278.285 140.954 276.699 141.023L270.286 141.644V134.249ZM286.214 158.295C286.214 157.537 286.145 156.951 286.007 156.537C285.904 156.089 285.697 155.744 285.387 155.503C284.87 155.158 283.715 154.986 281.922 154.986H276.233V147.074H281.922C282.818 147.074 283.525 147.039 284.042 146.97C284.559 146.901 284.956 146.763 285.232 146.557C285.507 146.35 285.68 146.074 285.749 145.729C285.852 145.35 285.904 144.781 285.904 144.023V133.215C289.627 133.594 292.316 134.542 293.971 136.059C295.626 137.541 296.453 139.644 296.453 142.368C296.453 144.884 295.953 146.781 294.954 148.056C293.988 149.332 292.437 150.228 290.299 150.745V150.952C292.54 151.469 294.143 152.279 295.109 153.383C296.212 154.693 296.764 156.727 296.764 159.485C296.764 162.381 296.074 164.57 294.695 166.052C293.109 167.742 290.282 168.793 286.214 169.207V158.295ZM282.284 169.414C280.388 169.414 278.216 169.276 275.768 169C273.32 168.759 271.424 168.483 270.08 168.173V160.778C274.251 161.26 277.974 161.502 281.25 161.502C282.008 161.502 282.939 161.467 284.042 161.398V169.362C283.697 169.396 283.111 169.414 282.284 169.414ZM302.522 160.571H312.968V169H302.522V160.571ZM337.432 151.211C337.432 148.211 337.415 146.246 337.381 145.315C337.312 143.867 337.174 142.85 336.967 142.264C336.726 141.678 336.346 141.316 335.829 141.178C335.347 141.006 334.519 140.92 333.347 140.92C332.83 140.92 332.192 140.954 331.434 141.023V133.059C331.64 133.025 331.951 133.008 332.364 133.008H333.347C336.967 133.008 339.759 133.318 341.724 133.939C343.69 134.525 345.138 135.507 346.068 136.886C346.93 138.162 347.465 139.834 347.671 141.902C347.878 143.971 347.982 147.074 347.982 151.211C347.982 154.934 347.896 157.761 347.723 159.692C347.585 161.622 347.206 163.243 346.585 164.553C345.896 166.001 344.827 167.104 343.379 167.862C341.966 168.586 339.983 169.052 337.432 169.259V151.211ZM333.347 169.414C329.762 169.414 326.969 169.121 324.969 168.535C323.004 167.914 321.556 166.897 320.626 165.484C319.764 164.208 319.229 162.553 319.022 160.519C318.816 158.485 318.712 155.382 318.712 151.211C318.712 147.487 318.781 144.66 318.919 142.73C319.091 140.799 319.488 139.179 320.108 137.869C320.798 136.421 321.849 135.335 323.263 134.611C324.711 133.852 326.71 133.37 329.262 133.163V151.211C329.262 154.176 329.279 156.123 329.313 157.054C329.382 158.433 329.537 159.468 329.779 160.157C330.02 160.743 330.382 161.122 330.865 161.295C331.347 161.433 332.175 161.502 333.347 161.502H334.381C334.623 161.502 334.916 161.467 335.26 161.398V169.362C335.053 169.396 334.743 169.414 334.329 169.414H333.347Z" fill="url(#paint0_linear_45_425)"/>
<path d="M193.633 69.5928L192.836 71.0292L192.867 71.0465L192.899 71.0625L193.633 69.5928ZM189.265 68.6935L189.396 67.0556L189.386 67.0547L189.375 67.054L189.265 68.6935ZM169.48 69.0789L169.573 70.7194L169.606 70.7175L169.64 70.7143L169.48 69.0789ZM162.671 69.4643H161.028V71.2031L162.764 71.1048L162.671 69.4643ZM162.671 52.7626L162.362 51.1488L161.028 51.4043V52.7626H162.671ZM205.582 51.9918L205.175 53.5838L205.183 53.5858L205.582 51.9918ZM214.832 56.8738L216.068 55.7918L216.054 55.7754L216.039 55.7593L214.832 56.8738ZM218.301 64.7108L216.679 64.9738L216.682 64.995L216.686 65.0162L218.301 64.7108ZM219.2 117V118.643H220.843V117H219.2ZM195.432 117H193.789V118.643H195.432V117ZM163.313 113.017L162.059 114.079L162.066 114.087L162.073 114.095L163.313 113.017ZM159.973 88.0932L161.57 88.4787L161.573 88.4665L159.973 88.0932ZM163.056 82.0549L164.218 83.2167L164.235 83.2001L164.251 83.1831L163.056 82.0549ZM169.095 78.843L169.468 80.4431L169.493 80.4373L169.518 80.4306L169.095 78.843ZM179.244 77.8152L179.283 76.1725L179.264 76.1721H179.244V77.8152ZM190.036 78.0721H191.679V76.4677L190.075 76.4295L190.036 78.0721ZM190.036 89.5064V91.1495H191.679V89.5064H190.036ZM184.897 89.6349L184.979 91.2759L185.055 91.2722L185.13 91.2615L184.897 89.6349ZM182.199 92.0759L183.82 92.346L183.835 92.2571L183.84 92.167L182.199 92.0759ZM182.199 98.2427L180.569 98.4465L180.581 98.5449L180.605 98.6412L182.199 98.2427ZM182.97 99.9129L184.307 98.9578L184.281 98.9214L184.253 98.8864L182.97 99.9129ZM184.897 100.941L185.13 99.3141L185.095 99.3091L185.061 99.3057L184.897 100.941ZM190.036 101.198H191.679V99.5545H190.036V101.198ZM190.036 114.302L191.041 115.602L191.679 115.109V114.302H190.036ZM183.998 117.128L183.676 115.517L183.637 115.525L183.599 115.534L183.998 117.128ZM197.075 76.402C197.075 74.1713 196.992 72.4559 196.792 71.3545L193.559 71.9423C193.701 72.7253 193.789 74.1789 193.789 76.402H197.075ZM196.792 71.3545C196.528 69.9035 195.687 68.7827 194.368 68.1232L192.899 71.0625C193.293 71.2594 193.48 71.509 193.559 71.9423L196.792 71.3545ZM194.431 68.1565C193.315 67.5363 191.528 67.2261 189.396 67.0556L189.134 70.3314C191.285 70.5034 192.41 70.7928 192.836 71.0292L194.431 68.1565ZM189.375 67.054C188.025 66.964 185.184 66.9219 180.914 66.9219V70.2081C185.21 70.2081 187.936 70.2516 189.156 70.333L189.375 67.054ZM180.914 66.9219C176.758 66.9219 172.893 67.095 169.321 67.4436L169.64 70.7143C173.091 70.3776 176.848 70.2081 180.914 70.2081V66.9219ZM169.387 67.4384L162.578 67.8238L162.764 71.1048L169.573 70.7194L169.387 67.4384ZM164.314 69.4643V52.7626H161.028V69.4643H164.314ZM162.98 54.3764C170.916 52.8567 179.505 52.0932 188.751 52.0932V48.807C179.326 48.807 170.528 49.5852 162.362 51.1488L162.98 54.3764ZM188.751 52.0932C195.893 52.0932 201.345 52.6058 205.175 53.5838L205.988 50.3997C201.767 49.3221 195.999 48.807 188.751 48.807V52.0932ZM205.183 53.5858C209.103 54.5657 211.856 56.073 213.624 57.9883L216.039 55.7593C213.696 53.2209 210.283 51.4734 205.98 50.3977L205.183 53.5858ZM213.595 57.9558C215.158 59.7419 216.205 62.0544 216.679 64.9738L219.923 64.4478C219.368 61.0291 218.103 58.1169 216.068 55.7918L213.595 57.9558ZM216.686 65.0162C217.258 68.0367 217.557 72.3292 217.557 77.9437H220.843C220.843 72.2524 220.543 67.7229 219.915 64.4053L216.686 65.0162ZM217.557 77.9437V117H220.843V77.9437H217.557ZM219.2 115.357H195.432V118.643H219.2V115.357ZM197.075 117V76.402H193.789V117H197.075ZM176.418 116.256C170.799 116.256 166.965 114.716 164.554 111.94L162.073 114.095C165.315 117.828 170.217 119.542 176.418 119.542V116.256ZM164.568 111.956C162.095 109.034 160.717 104.474 160.717 97.9857H157.431C157.431 104.859 158.879 110.32 162.059 114.079L164.568 111.956ZM160.717 97.9857C160.717 93.936 161.014 90.7837 161.57 88.4787L158.376 87.7076C157.733 90.3703 157.431 93.8131 157.431 97.9857H160.717ZM161.573 88.4665C162.122 86.1127 163.032 84.4028 164.218 83.2167L161.895 80.893C160.169 82.619 159.023 84.9346 158.373 87.7198L161.573 88.4665ZM164.251 83.1831C165.437 81.9274 167.136 80.9873 169.468 80.4431L168.721 77.2429C165.915 77.8978 163.588 79.099 161.862 80.9267L164.251 83.1831ZM169.518 80.4306C171.894 79.7971 175.118 79.4583 179.244 79.4583V76.1721C174.977 76.1721 171.435 76.5185 168.671 77.2554L169.518 80.4306ZM179.205 79.4578L189.997 79.7148L190.075 76.4295L179.283 76.1725L179.205 79.4578ZM188.393 78.0721V89.5064H191.679V78.0721H188.393ZM190.036 87.8633H188.751V91.1495H190.036V87.8633ZM188.751 87.8633C186.808 87.8633 185.401 87.903 184.665 88.0083L185.13 91.2615C185.592 91.1954 186.755 91.1495 188.751 91.1495V87.8633ZM184.815 87.9938C183.734 88.0479 182.663 88.3425 181.836 89.0909C180.984 89.8617 180.619 90.9056 180.559 91.9848L183.84 92.167C183.866 91.7045 183.993 91.5707 184.04 91.5278C184.112 91.4625 184.347 91.3075 184.979 91.2759L184.815 87.9938ZM180.578 91.8058C180.467 92.4775 180.428 93.6876 180.428 95.2878H183.714C183.714 93.6332 183.761 92.7021 183.82 92.346L180.578 91.8058ZM180.428 95.2878C180.428 96.5934 180.47 97.659 180.569 98.4465L183.83 98.0389C183.757 97.4559 183.714 96.5517 183.714 95.2878H180.428ZM180.605 98.6412C180.818 99.4922 181.161 100.281 181.687 100.939L184.253 98.8864C184.094 98.6877 183.923 98.3636 183.793 97.8442L180.605 98.6412ZM181.633 100.868C182.384 101.919 183.494 102.452 184.734 102.576L185.061 99.3057C184.588 99.2584 184.413 99.1062 184.307 98.9578L181.633 100.868ZM184.665 102.567C185.95 102.751 187.313 102.841 188.751 102.841V99.5545C187.449 99.5545 186.242 99.473 185.13 99.3141L184.665 102.567ZM188.751 102.841H190.036V99.5545H188.751V102.841ZM188.393 101.198V114.302H191.679V101.198H188.393ZM189.032 113.002C187.329 114.317 185.547 115.143 183.676 115.517L184.32 118.74C186.732 118.257 188.975 117.199 191.041 115.602L189.032 113.002ZM183.599 115.534C181.715 116.005 179.332 116.256 176.418 116.256V119.542C179.499 119.542 182.169 119.279 184.396 118.723L183.599 115.534ZM276.065 69.0789L275.805 70.7014L275.856 70.7095L275.907 70.7144L276.065 69.0789ZM261.162 69.0789H259.519V71.3036L261.645 70.6494L261.162 69.0789ZM261.162 50.4501L261.185 48.8071L259.519 48.7837V50.4501H261.162ZM280.048 52.7626H281.691V51.4464L280.406 51.1591L280.048 52.7626ZM280.048 69.4643L279.89 71.0998L281.691 71.2741V69.4643H280.048ZM244.332 115.587L243.705 117.105L243.705 117.105L244.332 115.587ZM235.596 108.392L237.008 107.552L236.999 107.537L236.989 107.521L235.596 108.392ZM232.255 98.7566L230.623 98.9464L230.625 98.965L230.628 98.9837L232.255 98.7566ZM232.255 70.8776L230.624 70.6833L230.624 70.6833L232.255 70.8776ZM234.953 61.3704L233.492 60.6198L233.487 60.6277L233.484 60.6356L234.953 61.3704ZM242.276 54.0474L243.042 55.5014L243.048 55.4978L243.055 55.4941L242.276 54.0474ZM255.766 50.707H257.409V48.9347L255.642 49.0686L255.766 50.707ZM256.023 92.7183L254.387 92.867L254.39 92.9037L254.395 92.9403L256.023 92.7183ZM257.436 97.0864L256.069 97.9978L256.094 98.0358L256.122 98.0723L257.436 97.0864ZM260.648 99.2705L260.158 100.839L260.171 100.843L260.184 100.847L260.648 99.2705ZM276.194 99.5274L276.002 97.8956L275.976 97.8986L275.95 97.9025L276.194 99.5274ZM280.562 99.0135H282.205V97.1658L280.37 97.3817L280.562 99.0135ZM280.562 115.715L280.95 117.312L282.205 117.007V115.715H280.562ZM276.325 67.4564C274.054 67.0931 270.867 66.9219 266.815 66.9219V70.2081C270.814 70.2081 273.794 70.3796 275.805 70.7014L276.325 67.4564ZM266.815 66.9219C264.151 66.9219 262.049 67.087 260.679 67.5085L261.645 70.6494C262.502 70.3857 264.169 70.2081 266.815 70.2081V66.9219ZM262.805 69.0789V50.4501H259.519V69.0789H262.805ZM261.139 52.093C267.097 52.1769 273.279 52.9324 279.689 54.3661L280.406 51.1591C273.797 49.6808 267.389 48.8945 261.185 48.8071L261.139 52.093ZM278.405 52.7626V69.4643H281.691V52.7626H278.405ZM280.206 67.8289L276.223 67.4434L275.907 70.7144L279.89 71.0998L280.206 67.8289ZM260.263 116.385C253.689 116.385 248.62 115.58 244.959 114.068L243.705 117.105C247.924 118.848 253.475 119.671 260.263 119.671V116.385ZM244.959 114.068C241.294 112.554 238.683 110.37 237.008 107.552L234.183 109.232C236.276 112.752 239.49 115.365 243.705 117.105L244.959 114.068ZM236.989 107.521C235.415 105.004 234.369 102.018 233.883 98.5295L230.628 98.9837C231.169 102.861 232.35 106.299 234.202 109.263L236.989 107.521ZM233.887 98.5668C233.469 94.9725 233.256 90.2463 233.256 84.3674H229.97C229.97 90.3082 230.185 95.1748 230.623 98.9464L233.887 98.5668ZM233.256 84.3674C233.256 79.0083 233.469 74.5817 233.887 71.0718L230.624 70.6833C230.185 74.368 229.97 78.9347 229.97 84.3674H233.256ZM233.887 71.0718C234.297 67.6292 235.151 64.6488 236.423 62.1052L233.484 60.6356C232.014 63.5736 231.07 66.9313 230.624 70.6833L233.887 71.0718ZM236.415 62.121C237.883 59.2627 240.075 57.0625 243.042 55.5014L241.511 52.5933C237.968 54.4582 235.278 57.1401 233.492 60.6198L236.415 62.121ZM243.055 55.4941C246.118 53.8447 250.363 52.7641 255.89 52.3454L255.642 49.0686C249.863 49.5064 245.115 50.6528 241.497 52.6007L243.055 55.4941ZM254.123 50.707V84.2389H257.409V50.707H254.123ZM254.123 84.2389C254.123 88.0188 254.208 90.9059 254.387 92.867L257.659 92.5695C257.495 90.7621 257.409 87.9963 257.409 84.2389H254.123ZM254.395 92.9403C254.669 94.9508 255.191 96.6813 256.069 97.9978L258.803 96.175C258.311 95.4359 257.891 94.2543 257.651 92.4963L254.395 92.9403ZM256.122 98.0723C257.124 99.408 258.499 100.32 260.158 100.839L261.138 97.7022C260.056 97.3641 259.291 96.8204 258.751 96.1005L256.122 98.0723ZM260.184 100.847C261.863 101.341 264.101 101.556 266.815 101.556V98.2697C264.218 98.2697 262.345 98.0569 261.112 97.6941L260.184 100.847ZM266.815 101.556C271.346 101.556 274.587 101.43 276.437 101.152L275.95 97.9025C274.374 98.1389 271.362 98.2697 266.815 98.2697V101.556ZM276.386 101.159L280.754 100.645L280.37 97.3817L276.002 97.8956L276.386 101.159ZM278.919 99.0135V115.715H282.205V99.0135H278.919ZM280.173 114.119C273.975 115.626 267.34 116.385 260.263 116.385V119.671C267.575 119.671 274.473 118.887 280.95 117.312L280.173 114.119ZM320.369 77.8152V76.1721H318.726V77.8152H320.369ZM329.362 77.8152V79.4583H331.005V77.8152H329.362ZM327.949 68.565L326.582 69.4765L326.588 69.4862L326.595 69.4959L327.949 68.565ZM325.893 67.1518L325.421 68.7256L325.495 68.7478L325.571 68.763L325.893 67.1518ZM320.369 66.7664H318.726V68.4095H320.369V66.7664ZM320.369 50.4501V48.807H318.726V50.4501H320.369ZM339.126 52.2487L338.648 53.8207L338.657 53.8235L339.126 52.2487ZM347.991 58.1586L346.637 59.0894L346.645 59.1016L346.654 59.1136L347.991 58.1586ZM351.074 67.4087L349.438 67.5575L349.44 67.5759L349.442 67.5943L351.074 67.4087ZM351.717 89.5064V91.1495H353.36V89.5064H351.717ZM320.369 89.5064H318.726V91.1495H320.369V89.5064ZM306.108 116.101L305.625 117.671L305.643 117.677L305.661 117.682L306.108 116.101ZM296.087 109.677L297.392 108.679L297.391 108.677L296.087 109.677ZM292.233 100.17L290.609 100.422L290.61 100.428L292.233 100.17ZM291.976 69.7213L293.607 69.9155L293.608 69.9111L291.976 69.7213ZM294.674 60.3426L293.231 59.5558L293.228 59.5626L293.224 59.5694L294.674 60.3426ZM301.74 53.7904L302.459 55.268L302.467 55.2641L302.475 55.2601L301.74 53.7904ZM314.973 50.707H316.616V48.9327L314.847 49.0687L314.973 50.707ZM315.358 95.8017L313.747 96.1239L313.749 96.1349L313.752 96.1459L315.358 95.8017ZM317.157 98.4996L318.068 97.1325L318.054 97.1228L318.039 97.1134L317.157 98.4996ZM321.911 99.6559L322.013 98.016L321.995 98.0148L321.976 98.0141L321.911 99.6559ZM342.595 99.5274L342.466 97.8893L342.446 97.8909L342.426 97.893L342.595 99.5274ZM349.147 99.0135H350.79V97.2365L349.019 97.3754L349.147 99.0135ZM349.147 115.587L349.619 117.161L350.79 116.809V115.587H349.147ZM335.015 117.642L334.921 116.002L334.896 116.003L334.871 116.006L335.015 117.642ZM320.369 79.4583H329.362V76.1721H320.369V79.4583ZM331.005 77.8152C331.005 75.373 330.886 73.3123 330.633 71.6572C330.387 70.0487 329.99 68.633 329.303 67.6341L326.595 69.4959C326.85 69.8675 327.159 70.6786 327.384 72.1535C327.603 73.5818 327.719 75.461 327.719 77.8152H331.005ZM329.316 67.6536C328.577 66.5445 327.527 65.8029 326.215 65.5406L325.571 68.763C325.972 68.8432 326.293 69.0438 326.582 69.4765L329.316 67.6536ZM326.365 65.578C325.278 65.2519 323.847 65.1232 322.167 65.1232V68.4095C323.743 68.4095 324.795 68.5378 325.421 68.7256L326.365 65.578ZM322.167 65.1232H320.369V68.4095H322.167V65.1232ZM322.012 66.7664V50.4501H318.726V66.7664H322.012ZM320.369 52.0932H322.167V48.807H320.369V52.0932ZM322.167 52.0932C329.478 52.0932 334.939 52.692 338.648 53.8206L339.605 50.6768C335.433 49.4072 329.589 48.807 322.167 48.807V52.0932ZM338.657 53.8235C342.419 54.9441 345.016 56.732 346.637 59.0894L349.345 57.2277C347.197 54.1035 343.884 51.9515 339.595 50.674L338.657 53.8235ZM346.654 59.1136C348.156 61.216 349.114 63.9986 349.438 67.5575L352.711 67.26C352.349 63.2817 351.252 59.8975 349.328 57.2035L346.654 59.1136ZM349.442 67.5943C349.859 71.2672 350.074 76.8444 350.074 84.3674H353.36C353.36 76.8161 353.146 71.0875 352.707 67.2232L349.442 67.5943ZM350.074 84.3674V89.5064H353.36V84.3674H350.074ZM351.717 87.8633H320.369V91.1495H351.717V87.8633ZM322.012 89.5064V77.8152H318.726V89.5064H322.012ZM324.737 116.385C316.922 116.385 310.885 115.745 306.556 114.52L305.661 117.682C310.41 119.026 316.793 119.671 324.737 119.671V116.385ZM306.591 114.53C302.375 113.233 299.361 111.254 297.392 108.679L294.782 110.675C297.267 113.924 300.933 116.228 305.625 117.671L306.591 114.53ZM297.391 108.677C295.615 106.36 294.42 103.459 293.856 99.9116L290.61 100.428C291.245 104.418 292.62 107.855 294.783 110.677L297.391 108.677ZM293.856 99.9172C293.276 96.1849 292.977 91.014 292.977 84.3674H289.69C289.69 91.0822 289.991 96.4463 290.609 100.422L293.856 99.9172ZM292.977 84.3674C292.977 78.2273 293.19 73.4191 293.607 69.9155L290.344 69.527C289.905 73.218 289.69 78.1739 289.69 84.3674H292.977ZM293.608 69.9111C294.019 66.3789 294.872 63.4619 296.124 61.1159L293.224 59.5694C291.734 62.3623 290.79 65.6978 290.344 69.5315L293.608 69.9111ZM296.116 61.1294C297.479 58.6313 299.566 56.6751 302.459 55.268L301.021 52.3129C297.575 53.9891 294.952 56.401 293.231 59.5558L296.116 61.1294ZM302.475 55.2601C305.466 53.7646 309.642 52.7651 315.099 52.3453L314.847 49.0687C309.169 49.5055 304.524 50.5615 301.005 52.3208L302.475 55.2601ZM313.33 50.707V89.5064H316.616V50.707H313.33ZM313.33 89.5064C313.33 92.4284 313.456 94.6674 313.747 96.1239L316.97 95.4794C316.747 94.3664 316.616 92.4086 316.616 89.5064H313.33ZM313.752 96.1459C314.091 97.7288 314.923 99.0257 316.275 99.8859L318.039 97.1134C317.507 96.7745 317.14 96.2727 316.965 95.4574L313.752 96.1459ZM316.246 99.8668C317.648 100.802 319.596 101.208 321.845 101.298L321.976 98.0141C319.943 97.9328 318.721 97.5678 318.068 97.1325L316.246 99.8668ZM321.808 101.296C324.587 101.469 327.533 101.556 330.647 101.556V98.2697C327.594 98.2697 324.716 98.1849 322.013 98.016L321.808 101.296ZM330.647 101.556C336.135 101.556 340.19 101.428 342.764 101.162L342.426 97.893C340.032 98.1406 336.122 98.2697 330.647 98.2697V101.556ZM342.723 101.166L349.276 100.652L349.019 97.3754L342.466 97.8893L342.723 101.166ZM347.504 99.0135V115.587H350.79V99.0135H347.504ZM348.675 114.013C345.427 114.987 340.862 115.662 334.921 116.002L335.109 119.283C341.158 118.937 346.015 118.242 349.619 117.161L348.675 114.013ZM334.871 116.006C332.02 116.257 328.644 116.385 324.737 116.385V119.671C328.71 119.671 332.186 119.541 335.159 119.279L334.871 116.006ZM157.525 130.577V128.934H155.882V130.577H157.525ZM167.092 130.577H168.735V128.934H167.092V130.577ZM167.092 169V170.643H168.735V169H167.092ZM157.525 169H155.882V170.643H157.525V169ZM172.418 152.917L174.058 152.821L174.058 152.81L174.057 152.8L172.418 152.917ZM172.16 151.004L173.718 150.484L173.703 150.438L173.685 150.394L172.16 151.004ZM171.436 150.383L170.963 151.957L171.038 151.979L171.113 151.994L171.436 150.383ZM169.264 150.228H167.621V151.871H169.264V150.228ZM169.264 143.919L168.237 142.636L167.621 143.129V143.919H169.264ZM180.796 145.109L179.364 145.915L179.37 145.926L179.376 145.936L180.796 145.109ZM181.778 148.16L180.152 148.392L180.153 148.399L181.778 148.16ZM182.037 169V170.643H183.68V169H182.037ZM172.47 169H170.827V170.643H172.47V169ZM157.525 132.22H167.092V128.934H157.525V132.22ZM165.449 130.577V169H168.735V130.577H165.449ZM167.092 167.357H157.525V170.643H167.092V167.357ZM159.168 169V130.577H155.882V169H159.168ZM174.113 156.537C174.113 154.719 174.096 153.463 174.058 152.821L170.778 153.014C170.809 153.543 170.827 154.701 170.827 156.537H174.113ZM174.057 152.8C173.991 151.869 173.898 151.023 173.718 150.484L170.601 151.523C170.598 151.514 170.607 151.54 170.623 151.62C170.638 151.696 170.655 151.799 170.674 151.935C170.71 152.207 170.746 152.571 170.779 153.034L174.057 152.8ZM173.685 150.394C173.355 149.568 172.683 148.957 171.758 148.772L171.113 151.994C171.04 151.98 170.921 151.936 170.806 151.838C170.694 151.742 170.647 151.646 170.634 151.614L173.685 150.394ZM171.908 148.809C171.319 148.633 170.563 148.585 169.781 148.585V151.871C170.516 151.871 170.863 151.927 170.963 151.957L171.908 148.809ZM169.781 148.585H169.264V151.871H169.781V148.585ZM170.907 150.228V143.919H167.621V150.228H170.907ZM170.29 145.202C171.32 144.378 172.693 143.907 174.538 143.907V140.621C172.109 140.621 169.965 141.254 168.237 142.636L170.29 145.202ZM174.538 143.907C177.329 143.907 178.703 144.742 179.364 145.915L182.227 144.302C180.751 141.683 177.953 140.621 174.538 140.621V143.907ZM179.376 145.936C179.727 146.538 180.001 147.34 180.152 148.392L183.405 147.927C183.21 146.565 182.829 145.334 182.215 144.281L179.376 145.936ZM180.153 148.399C180.309 149.465 180.394 150.827 180.394 152.504H183.68C183.68 150.732 183.592 149.199 183.404 147.921L180.153 148.399ZM180.394 152.504V169H183.68V152.504H180.394ZM182.037 167.357H172.47V170.643H182.037V167.357ZM174.113 169V156.537H170.827V169H174.113ZM200.7 149.918L199.902 151.354L199.933 151.372L199.965 151.388L200.7 149.918ZM198.941 149.556L199.072 147.918L199.062 147.917L199.051 147.916L198.941 149.556ZM190.978 149.711L191.07 151.351L191.104 151.35L191.137 151.346L190.978 149.711ZM188.237 149.866H186.594V151.605L188.33 151.507L188.237 149.866ZM188.237 143.143L187.928 141.53L186.594 141.785V143.143H188.237ZM205.509 142.833L205.102 144.425L205.11 144.427L205.509 142.833ZM209.232 144.798L210.469 143.716L210.454 143.7L210.44 143.684L209.232 144.798ZM210.629 147.953L209.007 148.216L209.01 148.237L209.014 148.258L210.629 147.953ZM210.99 169V170.643H212.634V169H210.99ZM201.424 169H199.78V170.643H201.424V169ZM188.495 167.397L187.241 168.458L187.248 168.466L187.255 168.474L188.495 167.397ZM187.151 157.365L188.748 157.75L188.751 157.738L187.151 157.365ZM188.392 154.934L189.554 156.096L189.57 156.079L189.586 156.062L188.392 154.934ZM190.822 153.641L191.196 155.241L191.221 155.235L191.246 155.229L190.822 153.641ZM194.908 153.228L194.947 151.585L194.927 151.584H194.908V153.228ZM199.252 153.331H200.895V151.726L199.291 151.688L199.252 153.331ZM199.252 157.933V159.577H200.895V157.933H199.252ZM197.183 157.985L197.265 159.626L197.341 159.622L197.415 159.612L197.183 157.985ZM196.097 158.968L197.718 159.238L197.733 159.149L197.738 159.059L196.097 158.968ZM196.097 161.45L194.467 161.654L194.479 161.752L194.503 161.848L196.097 161.45ZM196.407 162.122L197.744 161.167L197.718 161.131L197.69 161.096L196.407 162.122ZM197.183 162.536L197.415 160.909L197.381 160.904L197.347 160.901L197.183 162.536ZM199.252 162.639H200.895V160.996H199.252V162.639ZM199.252 167.914L200.256 169.214L200.895 168.721V167.914H199.252ZM196.821 169.052L196.499 167.441L196.461 167.448L196.423 167.458L196.821 169.052ZM203.067 152.659C203.067 151.758 203.035 150.99 202.937 150.451L199.704 151.039C199.744 151.259 199.78 151.766 199.78 152.659H203.067ZM202.937 150.451C202.775 149.563 202.242 148.852 201.434 148.448L199.965 151.388C199.936 151.373 199.866 151.329 199.799 151.24C199.732 151.151 199.709 151.071 199.704 151.039L202.937 150.451ZM201.498 148.482C200.842 148.117 199.925 147.986 199.072 147.918L198.81 151.194C199.201 151.225 199.491 151.265 199.696 151.307C199.921 151.354 199.958 151.386 199.902 151.354L201.498 148.482ZM199.051 147.916C198.468 147.878 197.29 147.861 195.58 147.861V151.147C197.317 151.147 198.38 151.165 198.832 151.195L199.051 147.916ZM195.58 147.861C193.88 147.861 192.292 147.932 190.818 148.076L191.137 151.346C192.49 151.214 193.97 151.147 195.58 151.147V147.861ZM190.885 148.071L188.144 148.226L188.33 151.507L191.07 151.351L190.885 148.071ZM189.88 149.866V143.143H186.594V149.866H189.88ZM188.546 144.757C191.672 144.159 195.066 143.856 198.734 143.856V140.569C194.887 140.569 191.283 140.887 187.928 141.53L188.546 144.757ZM198.734 143.856C201.578 143.856 203.677 144.061 205.102 144.425L205.915 141.241C204.1 140.778 201.683 140.569 198.734 140.569V143.856ZM205.11 144.427C206.574 144.793 207.485 145.328 208.025 145.913L210.44 143.684C209.325 142.476 207.754 141.701 205.907 141.239L205.11 144.427ZM207.996 145.88C208.484 146.438 208.84 147.19 209.007 148.216L212.25 147.69C212.003 146.165 211.429 144.813 210.469 143.716L207.996 145.88ZM209.014 148.258C209.227 149.385 209.347 151.042 209.347 153.279H212.634C212.634 150.965 212.512 149.071 212.243 147.647L209.014 148.258ZM209.347 153.279V169H212.634V153.279H209.347ZM210.99 167.357H201.424V170.643H210.99V167.357ZM203.067 169V152.659H199.78V169H203.067ZM193.77 167.719C191.682 167.719 190.458 167.151 189.736 166.32L187.255 168.474C188.808 170.263 191.1 171.005 193.77 171.005V167.719ZM189.75 166.336C188.966 165.409 188.432 163.843 188.432 161.346H185.146C185.146 164.228 185.749 166.696 187.241 168.458L189.75 166.336ZM188.432 161.346C188.432 159.753 188.55 158.571 188.748 157.75L185.554 156.979C185.269 158.158 185.146 159.63 185.146 161.346H188.432ZM188.751 157.738C188.942 156.919 189.238 156.412 189.554 156.096L187.23 153.772C186.374 154.628 185.842 155.741 185.551 156.991L188.751 157.738ZM189.586 156.062C189.902 155.728 190.399 155.427 191.196 155.241L190.449 152.041C189.178 152.338 188.053 152.899 187.197 153.806L189.586 156.062ZM191.246 155.229C192.086 155.005 193.289 154.871 194.908 154.871V151.584C193.148 151.584 191.627 151.726 190.399 152.054L191.246 155.229ZM194.869 154.87L199.213 154.974L199.291 151.688L194.947 151.585L194.869 154.87ZM197.609 153.331V157.933H200.895V153.331H197.609ZM199.252 156.29H198.734V159.577H199.252V156.29ZM198.734 156.29C197.968 156.29 197.329 156.304 196.951 156.359L197.415 159.612C197.415 159.612 197.417 159.611 197.423 159.611C197.428 159.61 197.436 159.609 197.446 159.608C197.466 159.606 197.493 159.604 197.528 159.602C197.598 159.597 197.69 159.592 197.807 159.589C198.04 159.581 198.348 159.577 198.734 159.577V156.29ZM197.101 156.344C196.532 156.373 195.851 156.533 195.292 157.038C194.709 157.566 194.491 158.258 194.457 158.877L197.738 159.059C197.738 159.052 197.736 159.105 197.7 159.191C197.662 159.283 197.595 159.386 197.497 159.475C197.3 159.653 197.145 159.632 197.265 159.626L197.101 156.344ZM194.476 158.698C194.416 159.062 194.402 159.633 194.402 160.26H197.689C197.689 159.945 197.693 159.697 197.7 159.512C197.708 159.309 197.718 159.235 197.718 159.238L194.476 158.698ZM194.402 160.26C194.402 160.798 194.419 161.276 194.467 161.654L197.728 161.246C197.706 161.073 197.689 160.757 197.689 160.26H194.402ZM194.503 161.848C194.613 162.29 194.803 162.747 195.124 163.149L197.69 161.096C197.714 161.125 197.721 161.142 197.718 161.136C197.716 161.13 197.704 161.104 197.691 161.051L194.503 161.848ZM195.07 163.077C195.565 163.77 196.291 164.098 197.02 164.171L197.347 160.901C197.349 160.901 197.413 160.908 197.504 160.957C197.601 161.009 197.685 161.084 197.744 161.167L195.07 163.077ZM196.951 164.162C197.52 164.244 198.115 164.282 198.734 164.282V160.996C198.251 160.996 197.812 160.966 197.415 160.909L196.951 164.162ZM198.734 164.282H199.252V160.996H198.734V164.282ZM197.609 162.639V167.914H200.895V162.639H197.609ZM198.247 166.614C197.67 167.059 197.09 167.322 196.499 167.441L197.143 170.663C198.276 170.436 199.316 169.941 200.256 169.214L198.247 166.614ZM196.423 167.458C195.767 167.622 194.893 167.719 193.77 167.719V171.005C195.06 171.005 196.22 170.896 197.22 170.646L196.423 167.458ZM233.88 149.711L233.62 151.333L233.67 151.342L233.721 151.346L233.88 149.711ZM227.881 149.711H226.238V151.936L228.364 151.281L227.881 149.711ZM227.881 142.213L227.904 140.57L226.238 140.546V142.213H227.881ZM235.483 143.143H237.126V141.827L235.841 141.54L235.483 143.143ZM235.483 149.866L235.324 151.502L237.126 151.676V149.866H235.483ZM221.106 168.431L220.479 169.95L220.479 169.95L221.106 168.431ZM217.59 165.535L219.002 164.695L218.993 164.68L218.983 164.664L217.59 165.535ZM216.245 161.657L214.613 161.847L214.615 161.865L214.618 161.884L216.245 161.657ZM216.245 150.435L214.614 150.241L214.614 150.241L216.245 150.435ZM217.331 146.608L215.87 145.858L215.866 145.865L215.862 145.873L217.331 146.608ZM220.279 143.661L221.044 145.115L221.051 145.111L221.058 145.107L220.279 143.661ZM225.709 142.316H227.352V140.544L225.585 140.678L225.709 142.316ZM225.812 159.226L224.176 159.375L224.179 159.412L224.184 159.448L225.812 159.226ZM226.381 160.984L225.014 161.896L225.039 161.934L225.067 161.97L226.381 160.984ZM227.674 161.864L227.184 163.432L227.197 163.436L227.21 163.44L227.674 161.864ZM233.931 161.967L233.739 160.335L233.713 160.338L233.688 160.342L233.931 161.967ZM235.69 161.76H237.333V159.912L235.498 160.128L235.69 161.76ZM235.69 168.483L236.078 170.079L237.333 169.774V168.483H235.69ZM234.139 148.089C233.148 147.93 231.803 147.861 230.156 147.861V151.147C231.75 151.147 232.888 151.216 233.62 151.333L234.139 148.089ZM230.156 147.861C229.079 147.861 228.102 147.924 227.398 148.141L228.364 151.281C228.556 151.222 229.096 151.147 230.156 151.147V147.861ZM229.524 149.711V142.213H226.238V149.711H229.524ZM227.858 143.856C230.182 143.888 232.604 144.183 235.124 144.747L235.841 141.54C233.122 140.932 230.475 140.606 227.904 140.57L227.858 143.856ZM233.84 143.143V149.866H237.126V143.143H233.84ZM235.641 148.231L234.038 148.076L233.721 151.346L235.324 151.502L235.641 148.231ZM227.519 167.771C224.936 167.771 223.04 167.452 221.734 166.912L220.479 169.95C222.344 170.72 224.723 171.057 227.519 171.057V167.771ZM221.734 166.912C220.423 166.371 219.552 165.62 219.002 164.695L216.178 166.375C217.145 168.002 218.618 169.181 220.479 169.95L221.734 166.912ZM218.983 164.664C218.433 163.784 218.053 162.718 217.873 161.43L214.618 161.884C214.852 163.561 215.368 165.08 216.197 166.406L218.983 164.664ZM217.878 161.467C217.715 160.073 217.63 158.213 217.63 155.865H214.344C214.344 158.275 214.431 160.275 214.613 161.847L217.878 161.467ZM217.63 155.865C217.63 153.73 217.715 151.99 217.877 150.629L214.614 150.241C214.431 151.776 214.344 153.656 214.344 155.865H217.63ZM217.877 150.629C218.031 149.336 218.348 148.249 218.801 147.343L215.862 145.873C215.212 147.174 214.805 148.638 214.614 150.241L217.877 150.629ZM218.793 147.359C219.289 146.394 220.023 145.652 221.044 145.115L219.514 142.207C217.915 143.048 216.684 144.271 215.87 145.858L218.793 147.359ZM221.058 145.107C222.125 144.533 223.684 144.117 225.833 143.954L225.585 140.678C223.183 140.86 221.122 141.341 219.5 142.214L221.058 145.107ZM224.066 142.316V155.813H227.352V142.316H224.066ZM224.066 155.813C224.066 157.341 224.1 158.54 224.176 159.375L227.449 159.077C227.387 158.396 227.352 157.319 227.352 155.813H224.066ZM224.184 159.448C224.305 160.333 224.546 161.193 225.014 161.896L227.748 160.073C227.665 159.948 227.527 159.636 227.44 159.004L224.184 159.448ZM225.067 161.97C225.608 162.692 226.344 163.169 227.184 163.432L228.164 160.295C227.901 160.213 227.775 160.104 227.696 159.999L225.067 161.97ZM227.21 163.44C228.019 163.678 229.029 163.765 230.156 163.765V160.479C229.146 160.479 228.501 160.394 228.138 160.287L227.21 163.44ZM230.156 163.765C231.975 163.765 233.349 163.716 234.175 163.592L233.688 160.342C233.135 160.425 231.992 160.479 230.156 160.479V163.765ZM234.123 163.599L235.882 163.392L235.498 160.128L233.739 160.335L234.123 163.599ZM234.046 161.76V168.483H237.333V161.76H234.046ZM235.301 166.886C232.889 167.473 230.297 167.771 227.519 167.771V171.057C230.532 171.057 233.387 170.734 236.078 170.079L235.301 166.886ZM240.801 130.577V128.934H239.158V130.577H240.801ZM250.368 130.577H252.011V128.934H250.368V130.577ZM250.368 169V170.643H252.011V169H250.368ZM240.801 169H239.158V170.643H240.801V169ZM252.54 161.45H250.897V161.884L251.112 162.262L252.54 161.45ZM252.54 150.487L251.114 149.67L250.897 150.05V150.487H252.54ZM257.039 142.626V140.983H256.086L255.613 141.81L257.039 142.626ZM267.123 142.626L268.52 143.492L270.075 140.983H267.123V142.626ZM259.366 155.141L257.969 154.275L257.454 155.106L257.939 155.956L259.366 155.141ZM267.278 169V170.643H270.108L268.705 168.185L267.278 169ZM256.832 169L255.404 169.812L255.876 170.643H256.832V169ZM240.801 132.22H250.368V128.934H240.801V132.22ZM248.725 130.577V169H252.011V130.577H248.725ZM250.368 167.357H240.801V170.643H250.368V167.357ZM242.444 169V130.577H239.158V169H242.444ZM254.183 161.45V150.487H250.897V161.45H254.183ZM253.966 151.303L258.465 143.443L255.613 141.81L251.114 149.67L253.966 151.303ZM257.039 144.269H267.123V140.983H257.039V144.269ZM265.726 141.761L257.969 154.275L260.763 156.007L268.52 143.492L265.726 141.761ZM257.939 155.956L265.851 169.815L268.705 168.185L260.793 154.326L257.939 155.956ZM267.278 167.357H256.832V170.643H267.278V167.357ZM258.261 168.188L253.968 160.638L251.112 162.262L255.404 169.812L258.261 168.188ZM270.286 134.249L269.959 132.639L268.643 132.906V134.249H270.286ZM283.732 133.059H285.375V131.559L283.881 131.423L283.732 133.059ZM283.732 141.075L283.528 142.705L285.375 142.936V141.075H283.732ZM276.699 141.023L276.627 139.382L276.584 139.384L276.541 139.388L276.699 141.023ZM270.286 141.644H268.643V143.454L270.445 143.279L270.286 141.644ZM286.007 156.537L284.406 156.907L284.424 156.983L284.448 157.057L286.007 156.537ZM285.387 155.503L286.395 154.206L286.348 154.169L286.298 154.136L285.387 155.503ZM276.233 154.986H274.59V156.629H276.233V154.986ZM276.233 147.074V145.431H274.59V147.074H276.233ZM284.042 146.97L283.825 145.342L283.825 145.342L284.042 146.97ZM285.232 146.557L286.217 147.871L286.217 147.871L285.232 146.557ZM285.749 145.729L284.163 145.297L284.149 145.351L284.137 145.407L285.749 145.729ZM285.904 133.215L286.07 131.58L284.261 131.396V133.215H285.904ZM293.971 136.059L292.861 137.27L292.868 137.276L292.875 137.283L293.971 136.059ZM294.954 148.056L293.66 147.043L293.652 147.054L293.643 147.065L294.954 148.056ZM290.299 150.745L289.913 149.148L288.656 149.452V150.745H290.299ZM290.299 150.952H288.656V152.259L289.93 152.553L290.299 150.952ZM295.109 153.383L296.366 152.324L296.356 152.312L296.345 152.301L295.109 153.383ZM294.695 166.052L295.893 167.177L295.898 167.171L294.695 166.052ZM286.214 169.207H284.571V171.026L286.38 170.842L286.214 169.207ZM275.768 169L275.952 167.367L275.941 167.366L275.929 167.365L275.768 169ZM270.08 168.173H268.436V169.48L269.71 169.774L270.08 168.173ZM270.08 160.778L270.268 159.145L268.436 158.933V160.778H270.08ZM284.042 161.398H285.685V159.649L283.94 159.758L284.042 161.398ZM284.042 169.362L284.206 170.997L285.685 170.849V169.362H284.042ZM270.614 135.859C274.586 135.051 278.372 134.651 281.974 134.651V131.365C278.129 131.365 274.123 131.792 269.959 132.639L270.614 135.859ZM281.974 134.651C282.758 134.651 283.282 134.668 283.583 134.696L283.881 131.423C283.423 131.381 282.775 131.365 281.974 131.365V134.651ZM282.089 133.059V141.075H285.375V133.059H282.089ZM283.936 139.444C283.01 139.329 281.812 139.277 280.37 139.277V142.563C281.756 142.563 282.799 142.614 283.528 142.705L283.936 139.444ZM280.37 139.277C279.473 139.277 278.221 139.312 276.627 139.382L276.77 142.665C278.349 142.596 279.544 142.563 280.37 142.563V139.277ZM276.541 139.388L270.128 140.008L270.445 143.279L276.857 142.659L276.541 139.388ZM271.93 141.644V134.249H268.643V141.644H271.93ZM287.857 158.295C287.857 157.471 287.786 156.678 287.566 156.018L284.448 157.057C284.504 157.223 284.571 157.603 284.571 158.295H287.857ZM287.608 156.168C287.435 155.417 287.053 154.717 286.395 154.206L284.378 156.8C284.375 156.798 284.371 156.794 284.368 156.79C284.364 156.786 284.364 156.785 284.366 156.788C284.369 156.793 284.388 156.827 284.406 156.907L287.608 156.168ZM286.298 154.136C285.731 153.757 285.018 153.586 284.375 153.49C283.687 153.387 282.861 153.343 281.922 153.343V156.629C282.775 156.629 283.423 156.67 283.89 156.74C284.403 156.817 284.526 156.904 284.475 156.87L286.298 154.136ZM281.922 153.343H276.233V156.629H281.922V153.343ZM277.877 154.986V147.074H274.59V154.986H277.877ZM276.233 148.717H281.922V145.431H276.233V148.717ZM281.922 148.717C282.847 148.717 283.637 148.682 284.259 148.599L283.825 145.342C283.413 145.396 282.789 145.431 281.922 145.431V148.717ZM284.259 148.599C284.924 148.51 285.63 148.312 286.217 147.871L284.246 145.242C284.269 145.224 284.259 145.238 284.188 145.263C284.116 145.288 283.999 145.318 283.825 145.342L284.259 148.599ZM286.217 147.871C286.824 147.416 287.213 146.784 287.36 146.051L284.137 145.407C284.139 145.401 284.147 145.367 284.174 145.324C284.202 145.28 284.231 145.253 284.246 145.242L286.217 147.871ZM287.334 146.161C287.497 145.565 287.547 144.818 287.547 144.023H284.261C284.261 144.744 284.208 145.135 284.163 145.297L287.334 146.161ZM287.547 144.023V133.215H284.261V144.023H287.547ZM285.737 134.849C289.322 135.214 291.59 136.105 292.861 137.27L295.081 134.848C293.043 132.979 289.932 131.973 286.07 131.58L285.737 134.849ZM292.875 137.283C294.105 138.385 294.81 139.997 294.81 142.368H298.096C298.096 139.291 297.147 136.698 295.067 134.835L292.875 137.283ZM294.81 142.368C294.81 144.708 294.338 146.178 293.66 147.043L296.247 149.07C297.568 147.384 298.096 145.06 298.096 142.368H294.81ZM293.643 147.065C292.98 147.942 291.819 148.687 289.913 149.148L290.686 152.342C293.055 151.769 294.997 150.722 296.264 149.048L293.643 147.065ZM288.656 150.745V150.952H291.943V150.745H288.656ZM289.93 152.553C292.012 153.034 293.23 153.731 293.872 154.465L296.345 152.301C295.056 150.828 293.068 149.905 290.669 149.351L289.93 152.553ZM293.852 154.441C294.593 155.321 295.12 156.893 295.12 159.485H298.407C298.407 156.561 297.831 154.065 296.366 152.324L293.852 154.441ZM295.12 159.485C295.12 162.143 294.487 163.864 293.492 164.933L295.898 167.171C297.661 165.276 298.407 162.618 298.407 159.485H295.12ZM293.497 164.928C292.324 166.177 289.994 167.171 286.048 167.572L286.38 170.842C290.57 170.415 293.894 169.306 295.893 167.177L293.497 164.928ZM287.857 169.207V158.295H284.571V169.207H287.857ZM282.284 167.771C280.464 167.771 278.356 167.638 275.952 167.367L275.584 170.633C278.076 170.914 280.311 171.057 282.284 171.057V167.771ZM275.929 167.365C273.506 167.126 271.692 166.858 270.449 166.572L269.71 169.774C271.157 170.107 273.134 170.391 275.607 170.635L275.929 167.365ZM271.723 168.173V160.778H268.436V168.173H271.723ZM269.891 162.41C274.108 162.898 277.897 163.145 281.25 163.145V159.858C278.052 159.858 274.394 159.623 270.268 159.145L269.891 162.41ZM281.25 163.145C282.054 163.145 283.021 163.108 284.145 163.038L283.94 159.758C282.857 159.826 281.962 159.858 281.25 159.858V163.145ZM282.399 161.398V169.362H285.685V161.398H282.399ZM283.879 167.727C283.624 167.753 283.111 167.771 282.284 167.771V171.057C283.112 171.057 283.771 171.04 284.206 170.997L283.879 167.727ZM302.522 160.571V158.928H300.879V160.571H302.522ZM312.968 160.571H314.611V158.928H312.968V160.571ZM312.968 169V170.643H314.611V169H312.968ZM302.522 169H300.879V170.643H302.522V169ZM302.522 162.214H312.968V158.928H302.522V162.214ZM311.325 160.571V169H314.611V160.571H311.325ZM312.968 167.357H302.522V170.643H312.968V167.357ZM304.165 169V160.571H300.879V169H304.165ZM337.381 145.315L339.023 145.255L339.022 145.246L339.022 145.237L337.381 145.315ZM336.967 142.264L338.516 141.717L338.502 141.678L338.486 141.639L336.967 142.264ZM335.829 141.178L335.277 142.726L335.34 142.749L335.406 142.766L335.829 141.178ZM331.434 141.023H329.79V142.822L331.582 142.66L331.434 141.023ZM331.434 133.059L331.163 131.439L329.79 131.667V133.059H331.434ZM341.724 133.939L341.23 135.505L341.242 135.509L341.255 135.513L341.724 133.939ZM346.068 136.886L344.706 137.805L344.707 137.806L346.068 136.886ZM347.671 141.902L349.306 141.739L349.306 141.739L347.671 141.902ZM347.723 159.692L346.087 159.546L346.085 159.56L346.084 159.575L347.723 159.692ZM346.585 164.553L348.069 165.259L348.07 165.256L346.585 164.553ZM343.379 167.862L344.128 169.325L344.135 169.321L344.142 169.318L343.379 167.862ZM337.432 169.259H335.789V171.04L337.565 170.896L337.432 169.259ZM324.969 168.535L324.475 170.101L324.491 170.107L324.507 170.111L324.969 168.535ZM320.626 165.484L321.998 164.58L321.992 164.572L321.987 164.564L320.626 165.484ZM318.919 142.73L317.282 142.584L317.281 142.598L317.28 142.613L318.919 142.73ZM320.108 137.869L318.625 137.162L318.623 137.165L320.108 137.869ZM323.263 134.611L324.012 136.073L324.019 136.07L324.025 136.066L323.263 134.611ZM329.262 133.163H330.905V131.381L329.129 131.525L329.262 133.163ZM329.313 157.054L327.671 157.115L327.672 157.126L327.672 157.136L329.313 157.054ZM329.779 160.157L328.228 160.7L328.243 160.742L328.259 160.783L329.779 160.157ZM330.865 161.295L330.312 162.842L330.362 162.86L330.413 162.875L330.865 161.295ZM335.26 161.398H336.903V159.394L334.938 159.787L335.26 161.398ZM335.26 169.362L335.53 170.983L336.903 170.754V169.362H335.26ZM339.075 151.211C339.075 148.218 339.058 146.221 339.023 145.255L335.739 145.376C335.772 146.271 335.789 148.205 335.789 151.211H339.075ZM339.022 145.237C338.953 143.785 338.811 142.552 338.516 141.717L335.417 142.811C335.536 143.148 335.671 143.95 335.739 145.394L339.022 145.237ZM338.486 141.639C338.09 140.677 337.36 139.886 336.253 139.591L335.406 142.766C335.409 142.767 335.403 142.765 335.391 142.759C335.379 142.752 335.37 142.745 335.367 142.742C335.359 142.735 335.396 142.766 335.448 142.89L338.486 141.639ZM336.382 139.631C335.608 139.355 334.528 139.277 333.347 139.277V142.563C334.511 142.563 335.085 142.657 335.277 142.726L336.382 139.631ZM333.347 139.277C332.763 139.277 332.072 139.315 331.285 139.387L331.582 142.66C332.312 142.593 332.897 142.563 333.347 142.563V139.277ZM333.077 141.023V133.059H329.79V141.023H333.077ZM331.704 134.68C331.772 134.669 331.972 134.651 332.364 134.651V131.365C331.929 131.365 331.509 131.381 331.163 131.439L331.704 134.68ZM332.364 134.651H333.347V131.365H332.364V134.651ZM333.347 134.651C336.906 134.651 339.502 134.96 341.23 135.505L342.219 132.372C340.017 131.676 337.028 131.365 333.347 131.365V134.651ZM341.255 135.513C342.943 136.017 344.034 136.81 344.706 137.805L347.43 135.967C346.241 134.205 344.436 133.033 342.194 132.364L341.255 135.513ZM344.707 137.806C345.372 138.791 345.848 140.177 346.037 142.066L349.306 141.739C349.082 139.49 348.488 137.533 347.43 135.966L344.707 137.806ZM346.037 142.066C346.235 144.05 346.339 147.086 346.339 151.211H349.625C349.625 147.061 349.522 143.892 349.306 141.739L346.037 142.066ZM346.339 151.211C346.339 154.921 346.252 157.689 346.087 159.546L349.36 159.838C349.539 157.833 349.625 154.947 349.625 151.211H346.339ZM346.084 159.575C345.956 161.366 345.61 162.774 345.101 163.849L348.07 165.256C348.802 163.711 349.214 161.878 349.362 159.809L346.084 159.575ZM345.102 163.846C344.569 164.966 343.756 165.81 342.617 166.407L344.142 169.318C345.898 168.398 347.223 167.035 348.069 165.259L345.102 163.846ZM342.63 166.4C341.49 166.984 339.751 167.422 337.299 167.621L337.565 170.896C340.216 170.681 342.441 170.189 344.128 169.325L342.63 166.4ZM339.075 169.259V151.211H335.789V169.259H339.075ZM333.347 167.771C329.823 167.771 327.211 167.479 325.432 166.958L324.507 170.111C326.727 170.762 329.7 171.057 333.347 171.057V167.771ZM325.464 166.968C323.778 166.435 322.679 165.614 321.998 164.58L319.253 166.387C320.434 168.18 322.231 169.393 324.475 170.101L325.464 166.968ZM321.987 164.564C321.319 163.574 320.845 162.202 320.657 160.353L317.388 160.685C317.613 162.904 318.209 164.841 319.264 166.403L321.987 164.564ZM320.657 160.353C320.459 158.405 320.355 155.371 320.355 151.211H317.069C317.069 155.393 317.172 158.565 317.388 160.685L320.657 160.353ZM320.355 151.211C320.355 147.498 320.424 144.718 320.558 142.847L317.28 142.613C317.138 144.603 317.069 147.477 317.069 151.211H320.355ZM320.556 142.876C320.716 141.077 321.079 139.659 321.593 138.572L318.623 137.165C317.897 138.699 317.467 140.521 317.282 142.584L320.556 142.876ZM321.592 138.575C322.128 137.45 322.923 136.631 324.012 136.073L322.514 133.148C320.776 134.039 319.468 135.392 318.625 137.162L321.592 138.575ZM324.025 136.066C325.199 135.452 326.952 134.999 329.394 134.801L329.129 131.525C326.469 131.741 324.223 132.253 322.5 133.155L324.025 136.066ZM327.618 133.163V151.211H330.905V133.163H327.618ZM327.618 151.211C327.618 154.169 327.636 156.148 327.671 157.115L330.955 156.993C330.922 156.099 330.905 154.182 330.905 151.211H327.618ZM327.672 157.136C327.743 158.559 327.907 159.783 328.228 160.7L331.33 159.614C331.168 159.152 331.021 158.307 330.954 156.972L327.672 157.136ZM328.259 160.783C328.633 161.689 329.291 162.477 330.312 162.842L331.417 159.747C331.416 159.747 331.42 159.748 331.424 159.751C331.428 159.754 331.427 159.754 331.42 159.747C331.406 159.732 331.357 159.674 331.298 159.531L328.259 160.783ZM330.413 162.875C331.138 163.082 332.171 163.145 333.347 163.145V159.858C332.179 159.858 331.557 159.784 331.316 159.715L330.413 162.875ZM333.347 163.145H334.381V159.858H333.347V163.145ZM334.381 163.145C334.767 163.145 335.175 163.091 335.583 163.009L334.938 159.787C334.656 159.843 334.478 159.858 334.381 159.858V163.145ZM333.617 161.398V169.362H336.903V161.398H333.617ZM334.99 167.741C334.922 167.753 334.722 167.771 334.329 167.771V171.057C334.764 171.057 335.185 171.04 335.53 170.983L334.99 167.741ZM334.329 167.771H333.347V171.057H334.329V167.771Z" fill="white" fill-opacity="0.05" mask="url(#path-1-outside-1_45_425)"/>
<path d="M36.3951 97.2784L107.72 54.4837L130.009 67.8571L130.009 97.2783L106.829 109.314L130.01 126.7L130.01 156.121L107.721 169.494L36.3965 126.7L36.3951 97.2784Z" fill="url(#paint1_linear_45_425)"/>
<path d="M36.3951 97.2784L107.72 54.4837L130.009 67.8571L130.009 97.2783L106.829 109.314L130.01 126.7L130.01 156.121L107.721 169.494L36.3965 126.7L36.3951 97.2784Z" fill="url(#paint2_linear_45_425)"/>
<path d="M106.337 109.971L129.188 127.11L129.188 155.656L107.721 168.536L37.2181 126.234L37.2167 97.7436L107.72 55.4418L129.187 68.3222L129.187 96.7792L106.451 108.585L105.291 109.187L106.337 109.971Z" stroke="white" stroke-opacity="0.05" stroke-width="1.64311"/>
<path d="M36.3965 126.7L107.721 83.9049L130.01 97.2782L78.2997 126.7L130.01 156.121L107.721 169.494L36.3965 126.7Z" fill="url(#paint3_linear_45_425)"/>
<path d="M107.721 84.863L128.382 97.2594L77.8934 125.985L76.6384 126.7L77.8934 127.414L128.382 156.14L107.721 168.536L37.9934 126.7L107.721 84.863Z" stroke="white" stroke-opacity="0.05" stroke-width="1.64311"/>
<path d="M570.604 97.2784L499.28 54.4837L476.991 67.857L476.991 97.2783L500.17 109.314L476.99 126.7L476.99 156.121L499.279 169.494L570.603 126.7L570.604 97.2784Z" fill="url(#paint4_linear_45_425)"/>
<path d="M570.604 97.2784L499.28 54.4837L476.991 67.857L476.991 97.2783L500.17 109.314L476.99 126.7L476.99 156.121L499.279 169.494L570.603 126.7L570.604 97.2784Z" fill="url(#paint5_linear_45_425)" fill-opacity="0.2"/>
<path d="M500.663 109.971L477.811 127.11L477.811 155.656L499.279 168.536L569.781 126.234L569.783 97.7436L499.28 55.4418L477.813 68.3222L477.813 96.7792L500.549 108.585L501.708 109.187L500.663 109.971Z" stroke="white" stroke-opacity="0.05" stroke-width="1.64311"/>
<path d="M570.603 126.699L499.279 83.9049L476.99 97.2782L528.7 126.699L476.99 156.121L499.279 169.494L570.603 126.699Z" fill="url(#paint6_linear_45_425)"/>
<path d="M499.279 84.863L478.618 97.2594L529.106 125.985L530.361 126.699L529.106 127.414L478.618 156.14L499.279 168.536L569.006 126.699L499.279 84.863Z" stroke="white" stroke-opacity="0.05" stroke-width="1.64311"/>
<path d="M369.442 161.348L429.176 32.9637H464.838V63.2767L405.104 191.661H369.442V161.348Z" fill="url(#paint7_linear_45_425)"/>
<path d="M464.017 63.0949L404.58 190.839H370.263V161.53L429.7 33.7853H464.017V63.0949Z" stroke="white" stroke-opacity="0.05" stroke-width="1.64311"/>
<path d="M369.442 191.661H405.104L464.838 63.2765H429.176L369.442 191.661Z" fill="url(#paint8_linear_45_425)"/>
<path d="M463.55 64.0981L404.58 190.839H370.73L429.7 64.0981H463.55Z" stroke="white" stroke-opacity="0.05" stroke-width="1.64311"/>
<rect x="429.177" y="32.9636" width="35.6623" height="30.3129" fill="url(#paint9_linear_45_425)"/>
<rect x="429.998" y="33.7851" width="34.0191" height="28.6698" stroke="white" stroke-opacity="0.05" stroke-width="1.64311"/>
</g>
<defs>
<filter id="filter0_d_45_425" x="6.39502" y="2.96359" width="594.209" height="218.697" filterUnits="userSpaceOnUse" color-interpolation-filters="sRGB">
<feFlood flood-opacity="0" result="BackgroundImageFix"/>
<feColorMatrix in="SourceAlpha" type="matrix" values="0 0 0 0 0 0 0 0 0 0 0 0 0 0 0 0 0 0 127 0" result="hardAlpha"/>
<feOffset/>
<feGaussianBlur stdDeviation="15"/>
<feComposite in2="hardAlpha" operator="out"/>
<feColorMatrix type="matrix" values="0 0 0 0 0.433005 0 0 0 0 0.171478 0 0 0 0 0.843333 0 0 0 0.35 0"/>
<feBlend mode="normal" in2="BackgroundImageFix" result="effect1_dropShadow_45_425"/>
<feBlend mode="normal" in="SourceGraphic" in2="effect1_dropShadow_45_425" result="shape"/>
</filter>
<linearGradient id="paint0_linear_45_425" x1="94.4785" y1="117.09" x2="627.111" y2="92.7791" gradientUnits="userSpaceOnUse">
<stop stop-color="#FF00FB"/>
<stop offset="0.408348" stop-color="#A44AFF"/>
<stop offset="0.649604" stop-color="#7014FF"/>
<stop offset="1" stop-color="#24163E"/>
</linearGradient>
<linearGradient id="paint1_linear_45_425" x1="105.668" y1="69.7812" x2="143.131" y2="100.672" gradientUnits="userSpaceOnUse">
<stop stop-color="#FF02FF"/>
<stop offset="1" stop-color="#E70CFF"/>
</linearGradient>
<linearGradient id="paint2_linear_45_425" x1="80.6924" y1="169.683" x2="107.639" y2="71.753" gradientUnits="userSpaceOnUse">
<stop stop-color="#BD00BA"/>
<stop offset="1" stop-color="#E600FF"/>
</linearGradient>
<linearGradient id="paint3_linear_45_425" x1="67.5475" y1="178.884" x2="161.534" y2="49.4066" gradientUnits="userSpaceOnUse">
<stop stop-color="#FF8EFF"/>
<stop offset="0.680693" stop-color="#E400FF"/>
</linearGradient>
<linearGradient id="paint4_linear_45_425" x1="546.025" y1="50.7211" x2="471.099" y2="89.4986" gradientUnits="userSpaceOnUse">
<stop stop-color="#4100A6"/>
<stop offset="1" stop-color="#7E3DE3"/>
</linearGradient>
<linearGradient id="paint5_linear_45_425" x1="590.06" y1="95.4138" x2="484.901" y2="172.969" gradientUnits="userSpaceOnUse">
<stop stop-color="#6D30CB"/>
<stop offset="1" stop-color="#995EF8"/>
</linearGradient>
<linearGradient id="paint6_linear_45_425" x1="535.509" y1="98.0428" x2="498.046" y2="169.683" gradientUnits="userSpaceOnUse">
<stop stop-color="#6629C4"/>
<stop offset="1" stop-color="#9D62FC"/>
</linearGradient>
<linearGradient id="paint7_linear_45_425" x1="443.493" y1="29.0321" x2="365.28" y2="192.029" gradientUnits="userSpaceOnUse">
<stop stop-color="#7819F6"/>
<stop offset="1" stop-color="#8842E3"/>
</linearGradient>
<linearGradient id="paint8_linear_45_425" x1="373.9" y1="198.347" x2="443.887" y2="54.361" gradientUnits="userSpaceOnUse">
<stop stop-color="#A065FF"/>
<stop offset="1" stop-color="#6225C0"/>
</linearGradient>
<linearGradient id="paint9_linear_45_425" x1="427.394" y1="63.2765" x2="464.839" y2="32.9636" gradientUnits="userSpaceOnUse">
<stop stop-color="#692CC7"/>
<stop offset="1" stop-color="#924BFF"/>
</linearGradient>
</defs>
</svg>
